# xmcd
#
# Track frame offsets: 
#        150
#        17899
#        30876
#        43530
#        58556
#        86496
#        101203
#        116017
#        133524
#        153056
#        162633
#        179631
#        191609
#        207065
#        218846
#        230095
#        246025
#        263768
#        275326
#        294665
#
# Disc length: 4171 seconds
#
# Revision: 1
# Processed by: cddbd v1.5.2PL0 Copyright (c) Steve Scherf et al.
# Submitted via: ExactAudioCopy v1.0b1
#
DISCID=1c104914
DTITLE=Various Artist - Nasza Mlodosc_01
DYEAR=2010
DGENRE=Disco polo
TTITLE0=01-Przy kominku
TTITLE1=02-Kapitanskie tango
TTITLE2=03-Gdybym mial gitare
TTITLE3=04-Matko moja ja wiem
TTITLE4=05-Graj cyganie graj
TTITLE5=06-Jarzebino czerwona
TTITLE6=07-Czego sie boisz glupia
TTITLE7=08-W zielonym goju
TTITLE8=09-To byl Twoj blond
TTITLE9=10-Obozowe tango
TTITLE10=11-Pij tylko stare wino
TTITLE11=12-Tys moja bajka
TTITLE12=13-Apasjonata
TTITLE13=14-Od nocy do nocy
TTITLE14=15-Serce matki
TTITLE15=16-Siedem czerwonych roz
TTITLE16=17-Dzis prawdziwych cyganow juz nie
TTITLE17=18-Zagraj mi piekny cyganie
TTITLE18=19-Milosny bilet
TTITLE19=20-Zono moja
EXTD=
EXTT0=
EXTT1=
EXTT2=
EXTT3=
EXTT4=
EXTT5=
EXTT6=
EXTT7=
EXTT8=
EXTT9=
EXTT10=
EXTT11=
EXTT12=
EXTT13=
EXTT14=
EXTT15=
EXTT16=
EXTT17=
EXTT18=
EXTT19=
PLAYORDER=
